PathFileType	4	(X/Y/Z)	C:/Users/opensim2020/Desktop/walking_exp_matlab/subject03_walking09_straight_02.trc	
DataRate	CameraRate	NumFrames	NumMarkers	Units	OrigDataRate	OrigDataStartFrame	OrigNumFrames	
100.00	100.00	9	47	mm	100.00	1836	364	
Frame#	Time	LFHD			RFHD			LBHD			RBHD			C7			T10			CLAV			STRN			RBAK			LSHO			LUPA			LELB			LFRM			LWRA			LWRB			LFIN			RSHO			RUPA			RELB			RFRM			RWRA			RWRB			RFIN			LASI			RASI			LPSI			RPSI			LTHI			LKNE			LTIB			LANK			LHEE			LTOE			RTHI			RKNE			RTIB			RANK			RHEE			RTOE			*39			*40			*41			*42			*43			*44			*45			*46			
		X1	Y1	Z1	X2	Y2	Z2	X3	Y3	Z3	X4	Y4	Z4	X5	Y5	Z5	X6	Y6	Z6	X7	Y7	Z7	X8	Y8	Z8	X9	Y9	Z9	X10	Y10	Z10	X11	Y11	Z11	X12	Y12	Z12	X13	Y13	Z13	X14	Y14	Z14	X15	Y15	Z15	X16	Y16	Z16	X17	Y17	Z17	X18	Y18	Z18	X19	Y19	Z19	X20	Y20	Z20	X21	Y21	Z21	X22	Y22	Z22	X23	Y23	Z23	X24	Y24	Z24	X25	Y25	Z25	X26	Y26	Z26	X27	Y27	Z27	X28	Y28	Z28	X29	Y29	Z29	X30	Y30	Z30	X31	Y31	Z31	X32	Y32	Z32	X33	Y33	Z33	X34	Y34	Z34	X35	Y35	Z35	X36	Y36	Z36	X37	Y37	Z37	X38	Y38	Z38	X39	Y39	Z39	X40	Y40	Z40	X41	Y41	Z41	X42	Y42	Z42	X43	Y43	Z43	X44	Y44	Z44	X45	Y45	Z45	X46	Y46	Z46	X47	Y47	Z47	

1	0.000	1466.69104	1495.66211	1629.72131	1334.10437	1506.78992	1627.61292	1474.70178	1623.37781	1585.63855	1343.98120	1629.83215	1583.41333	1420.21777	1657.45422	1423.47510	1429.94067	1690.97864	1111.24304	1424.02686	1534.77100	1348.09167	1440.27246	1491.36340	1183.82971	1331.36865	1707.91956	1243.67419	1576.74890	1581.34558	1393.64917	1658.49158	1583.62109	1202.10913	1679.71082	1568.83313	1081.62964	1687.59387	1517.38892	962.68079	1663.85229	1467.81885	853.03448	1710.38904	1498.22961	851.87921	1705.38586	1461.63672	775.50586	1262.66919	1578.29272	1363.12878	1204.24670	1575.21899	1136.15210	1198.59277	1562.72681	1023.07495	1200.85974	1556.15796	886.02222	1240.15234	1536.73694	788.75073	1193.51233	1564.64526	785.66766	1207.66504	1551.98572	712.08838	1562.10559	1538.85376	943.26990	1325.38904	1514.86621	944.30029	1494.84094	1693.65454	974.50330	1348.01489	1678.39673	979.96857	1600.42371	1644.88440	647.14514	1576.82043	1673.62903	469.42923	1549.93176	1812.50391	323.88525	1490.55273	1923.57397	151.64716	1439.11475	1961.37219	142.74010	1490.16113	1818.33496	34.39855	1287.04712	1549.38416	650.43573	1331.02014	1513.52942	474.34509	1329.91370	1529.50098	287.24344	1382.99231	1518.26880	72.49745	1435.58728	1559.91272	40.37707	1399.04102	1375.34424	38.71652	1419.69885	1581.56946	1688.35449																					 
2	0.010	1466.20361	1489.38660	1630.47827	1333.66455	1500.45398	1628.03137	1474.33850	1617.02673	1586.12927	1343.65552	1623.40894	1583.53772	1420.06152	1650.58813	1423.72961	1429.10449	1683.63879	1111.46057	1423.86438	1527.73267	1348.63416	1439.88489	1484.11279	1184.31714	1330.68982	1700.41089	1243.61743	1576.60388	1574.34229	1394.15308	1658.11829	1577.23083	1202.42456	1679.13049	1563.38342	1081.73328	1686.93555	1513.31860	962.15643	1663.12329	1465.01514	851.93774	1709.62964	1495.46826	851.02783	1704.35571	1460.12366	774.00684	1262.47498	1571.30579	1363.68774	1203.68860	1567.40881	1136.86560	1197.76172	1554.59326	1023.81653	1200.00574	1547.10010	886.82129	1238.99670	1527.12012	789.77246	1192.58765	1555.08582	786.35895	1206.49438	1542.01904	713.06488	1561.38831	1531.84863	943.71906	1324.95483	1507.76428	944.26172	1494.13708	1686.62073	974.75671	1347.26172	1670.98340	980.35687	1602.43518	1634.88721	646.92682	1580.47229	1661.17004	468.58160	1553.03271	1802.03723	325.31989	1492.89990	1916.71021	156.06427	1441.48523	1954.56970	149.55692	1490.12939	1817.23706	34.50384	1287.08838	1545.01172	650.60095	1330.53381	1510.00244	474.19534	1329.82544	1527.42493	287.22430	1383.13074	1517.98413	72.37660	1435.68872	1559.86096	40.36679	1399.09644	1375.21252	38.68833																								 
3	0.020	1465.72827	1483.16760	1631.12366	1333.12805	1494.38672	1628.45325	1473.98462	1610.66357	1586.44531	1343.20471	1616.97412	1583.54443	1419.95947	1643.80176	1423.96082	1428.20422	1676.44385	1111.53918	1423.73328	1520.72925	1349.01929	1439.57690	1476.97949	1184.68396	1330.33704	1693.24756	1243.79163	1576.44946	1567.37451	1394.34448	1657.79944	1570.81787	1202.50195	1678.57739	1557.84521	1081.61157	1686.22437	1509.08093	961.30426	1662.46265	1462.19043	850.69458	1708.92566	1492.63062	850.07068	1703.33826	1458.56531	772.41486	1262.31042	1564.30969	1364.10645	1203.08716	1559.54675	1137.37317	1196.95813	1546.22876	1024.45911	1199.02783	1537.90588	887.46851	1237.82922	1517.20923	790.57379	1191.55615	1545.32849	787.02234	1205.34521	1531.62463	713.81635	1560.66406	1525.16479	943.95410	1324.40552	1500.68945	944.08508	1493.57336	1679.87390	974.76202	1346.64258	1663.86450	980.72186	1604.41003	1624.80078	646.49365	1583.71655	1648.13318	467.53961	1556.02393	1790.86243	326.68723	1495.68372	1909.18835	160.52631	1444.09180	1946.94104	156.30263	1490.22302	1816.00476	34.76100	1286.24207	1539.45544	651.10107	1329.93750	1506.48474	474.20285	1329.56030	1525.41187	287.25977	1383.15332	1517.81726	72.22440	1435.74109	1559.86023	40.39257	1399.05811	1375.14014	38.65616																								 
4	0.030	1465.33167	1476.92383	1631.68115	1332.80408	1488.02209	1628.56946	1473.70093	1604.32336	1586.65320	1342.92175	1610.68372	1583.46948	1419.87878	1637.02246	1424.08325	1427.37634	1669.40063	1111.58142	1423.51257	1513.86829	1349.28125	1439.33997	1470.08594	1184.93652	1329.86731	1686.12195	1243.85144	1576.40051	1560.52234	1394.41052	1657.51489	1564.50916	1202.38025	1677.99365	1552.15381	1081.12354	1685.57996	1504.85010	960.40027	1661.66504	1459.48376	849.16858	1708.27759	1489.61438	848.88733	1702.34692	1456.84949	770.64209	1262.15417	1557.40820	1364.37317	1202.45862	1551.74634	1137.75562	1196.15503	1537.75232	1024.96692	1198.03076	1528.58069	888.03204	1236.79565	1507.37488	791.16315	1190.50354	1535.32642	787.52856	1204.02100	1520.97021	714.55865	1560.15979	1518.00464	944.13092	1323.87610	1493.79944	943.91858	1493.15771	1673.27185	974.54742	1346.21228	1657.06714	981.14447	1606.27502	1614.58960	645.89679	1586.70850	1634.64246	466.41251	1558.92859	1778.93640	327.86517	1498.82727	1900.72815	164.65913	1447.33459	1938.68665	163.13029	1490.31946	1814.20776	34.99766	1285.65735	1535.47363	651.78101	1329.38159	1502.99805	474.29199	1329.22937	1523.40234	287.29276	1383.16528	1517.71741	72.28457	1435.73560	1559.87268	40.41757	1399.02905	1375.09106	38.64145																								 
5	0.040	1464.96277	1470.73743	1632.11108	1332.41467	1481.89514	1628.70313	1473.45105	1598.02136	1586.70959	1342.77161	1604.53809	1583.39355	1419.77283	1630.21985	1424.12073	1426.66760	1662.51245	1111.55432	1423.43347	1507.01489	1349.42407	1438.89905	1463.28650	1184.87280	1329.65955	1679.54297	1244.17639	1576.33948	1553.76563	1394.24280	1657.19788	1558.27026	1202.06873	1677.63684	1546.59497	1080.77075	1685.05408	1500.65955	959.52155	1660.86560	1456.65027	847.48676	1707.65417	1486.70325	847.74902	1701.47400	1455.01599	768.92181	1262.02893	1550.42664	1364.47827	1201.85754	1543.82898	1138.06201	1195.39600	1529.41431	1025.45410	1197.04688	1519.11780	888.54565	1235.53369	1496.80725	791.96631	1189.37708	1525.20520	788.00470	1202.95215	1509.72375	715.06543	1559.92065	1511.12024	944.21393	1323.45239	1487.20435	943.82587	1492.99597	1666.91736	974.16583	1345.93445	1650.48376	981.55096	1607.93140	1604.31140	645.11676	1589.35132	1620.68872	465.14139	1561.91333	1766.30493	328.78180	1502.08667	1891.23950	168.35216	1450.88147	1929.64746	169.76678	1490.67664	1811.85278	35.51278	1285.04309	1530.64221	652.07513	1328.89221	1499.49231	474.37915	1328.90308	1521.41797	287.30472	1383.27588	1517.72717	72.49841	1435.69983	1559.89148	40.39798	1398.98657	1375.08264	38.62483	1417.06104	1557.91284	1687.93604																					 
6	0.050	1464.62988	1464.66614	1632.45007	1332.17700	1475.75684	1628.83447	1473.21765	1591.75085	1586.63257	1342.48792	1598.16406	1583.01990	1419.64990	1623.51563	1424.12915	1426.14172	1655.85767	1111.56750	1423.43494	1500.21033	1349.50610	1438.70776	1456.53748	1184.87219	1329.97241	1673.18347	1244.69287	1576.36694	1547.11670	1393.92627	1656.96741	1552.13892	1201.59741	1677.26807	1540.94055	1080.19507	1684.44617	1496.38000	958.42511	1660.05371	1453.89294	845.82922	1707.05627	1483.62585	846.48132	1700.57288	1453.15125	767.13391	1261.62085	1543.49146	1364.55286	1201.27087	1535.90979	1138.32141	1194.60791	1520.72314	1025.79883	1196.06238	1509.42798	888.93079	1234.35510	1486.72498	792.38190	1188.23743	1514.84570	788.41003	1201.23865	1498.83521	715.83228	1559.47864	1504.78870	943.93268	1323.08093	1480.75244	943.94165	1492.93225	1660.63672	973.60675	1345.82727	1644.14392	981.97363	1609.40527	1594.02515	644.21240	1591.70251	1606.40894	463.96671	1565.01062	1753.01160	329.49170	1505.27490	1880.95374	172.05493	1454.69971	1920.23999	176.37410	1491.56726	1808.24243	37.03939	1284.62769	1525.72046	652.28467	1328.40588	1496.05933	474.39264	1328.52014	1519.47241	287.29230	1383.26624	1517.68298	72.48446	1435.68604	1559.89954	40.42815	1398.94568	1375.07153	38.58296																								 
7	0.060	1464.41553	1458.52844	1632.71301	1331.81592	1469.86267	1628.90454	1473.11816	1585.46545	1586.45874	1342.41418	1592.00269	1582.67639	1419.53455	1616.85962	1424.08752	1425.92017	1649.50159	1111.64319	1423.38293	1493.52808	1349.46252	1438.56677	1449.94177	1184.75183	1329.39380	1666.39502	1244.75684	1576.41992	1540.58899	1393.56946	1656.73157	1546.13354	1201.08508	1676.90479	1535.33069	1079.54248	1683.69653	1491.90198	957.07129	1659.16345	1451.18665	844.01886	1706.48608	1480.43811	845.14636	1699.73633	1451.18909	765.39667	1261.65210	1536.65076	1364.72119	1200.69238	1527.95129	1138.56226	1193.79407	1511.95496	1026.17737	1195.00732	1499.70996	889.45538	1233.19861	1475.99866	793.15167	1187.12390	1504.28662	788.84216	1199.95398	1487.45154	716.52722	1559.21387	1498.64673	943.43628	1322.67163	1474.20081	944.12396	1492.95313	1654.57446	972.92255	1345.79224	1638.01440	982.40753	1610.72192	1583.63330	643.28406	1593.67261	1591.82874	462.82983	1568.14258	1739.15234	329.82556	1508.32422	1870.62329	175.91612	1458.17090	1910.41699	182.50647	1493.95593	1802.46985	39.58276	1284.16064	1520.99866	652.50208	1327.94910	1492.72046	474.38678	1328.19067	1517.61426	287.27585	1383.12122	1517.93250	72.29325	1435.69092	1559.96558	40.42945	1398.91052	1375.06177	38.57784	1416.29675	1546.22107	1687.76282																					 
8	0.070	1464.13574	1452.42822	1632.92798	1331.71167	1463.66772	1628.94348	1472.95508	1579.20337	1586.17529	1342.20398	1585.63989	1582.18958	1419.41919	1610.25928	1424.05908	1425.78333	1643.25305	1111.69775	1423.39783	1486.97595	1349.39246	1438.43335	1443.63782	1184.49963	1328.72388	1659.56763	1244.73596	1576.46826	1534.25964	1393.17419	1656.51147	1540.28271	1200.49817	1676.51685	1529.76001	1078.87036	1683.13684	1487.75732	956.04248	1658.34155	1448.50012	842.28943	1705.93433	1477.36438	843.91217	1699.04004	1449.11499	763.76837	1261.64807	1529.59082	1364.73132	1200.24438	1519.83838	1138.72913	1193.01636	1503.11133	1026.57385	1194.05481	1489.77747	889.87860	1232.11572	1465.45068	793.70923	1185.95349	1493.59619	789.32062	1198.56018	1475.89282	717.21558	1558.98389	1492.75159	942.98749	1322.22668	1467.38525	944.38898	1493.09167	1648.64758	972.22961	1345.82898	1632.00623	982.71875	1611.79688	1573.14819	642.38837	1595.26660	1576.94885	461.46472	1571.01514	1724.95386	330.07144	1510.57520	1859.89929	179.81982	1460.77283	1900.23108	187.38046	1498.07202	1794.08521	42.82077	1284.66785	1515.56946	652.35657	1327.51538	1489.46521	474.37192	1327.88623	1515.83374	287.29028	1383.31702	1517.97302	72.42063	1435.67310	1559.99109	40.42521	1398.88843	1375.07178	38.54269																								 
9	0.080	1464.03162	1446.33264	1633.12231	1331.45215	1457.67517	1628.85437	1472.96289	1572.93762	1585.91638	1342.20349	1579.46826	1581.71069	1419.39966	1603.76111	1424.05554	1425.80884	1637.23682	1111.74890	1423.45654	1480.46265	1349.28430	1438.51770	1437.61267	1184.48206	1328.31274	1653.04907	1244.93726	1576.65234	1527.93701	1392.81909	1656.36328	1534.61768	1199.96802	1676.14709	1524.29785	1078.19470	1682.45044	1483.45020	954.84570	1657.52563	1445.84534	840.70477	1705.39648	1474.21484	842.69690	1698.35571	1447.02026	762.21698	1261.58228	1522.64624	1364.77063	1199.80725	1511.68164	1138.92163	1192.35095	1494.11169	1026.89734	1193.11829	1479.68835	890.33118	1231.09509	1455.09497	794.22620	1184.80981	1482.72461	789.84564	1197.26770	1464.11401	717.89984	1558.93567	1486.87610	942.67645	1322.03210	1461.57898	944.48096	1493.10522	1642.80591	971.46289	1345.79065	1626.10779	982.86340	1612.64868	1562.54285	641.70929	1596.97107	1562.05237	460.86618	1573.36072	1710.64087	330.75958	1512.61829	1848.72864	183.76659	1462.58228	1889.22668	190.67827	1502.51709	1783.16309	45.57322	1284.07654	1511.07813	653.00751	1327.23938	1486.19543	474.25958	1327.70740	1513.99268	287.27072	1383.96021	1517.46484	71.79094	1435.68335	1560.04199	40.43880	1398.92444	1375.06799	38.50772																								 
